<svg width="31" height="31" viewBox="0 0 31 31" fill="none" xmlns="http://www.w3.org/2000/svg">
<g filter="url(#filter0_dd_7_11)">
<mask id="mask0_7_11" style="mask-type:alpha" maskUnits="userSpaceOnUse" x="4" y="0" width="27" height="27">
<rect x="4" y="0.111115" width="26.6667" height="26.6667" fill="#D9D9D9"/>
</mask>
<g mask="url(#mask0_7_11)">
<path d="M6.67188 22.1105C6.11632 22.1105 5.6441 21.916 5.25521 21.5271C4.86632 21.1382 4.67188 20.666 4.67188 20.1105C4.67188 19.5549 4.86632 19.0827 5.25521 18.6938C5.6441 18.3049 6.11632 18.1105 6.67188 18.1105C7.22743 18.1105 7.69965 18.3049 8.08854 18.6938C8.47743 19.0827 8.67188 19.5549 8.67188 20.1105C8.67188 20.666 8.47743 21.1382 8.08854 21.5271C7.69965 21.916 7.22743 22.1105 6.67188 22.1105ZM15.5608 22.1105C15.0052 22.1105 14.533 21.916 14.1441 21.5271C13.7552 21.1382 13.5608 20.666 13.5608 20.1105C13.5608 19.5549 13.7552 19.0827 14.1441 18.6938C14.533 18.3049 15.0052 18.1105 15.5608 18.1105C16.1163 18.1105 16.5885 18.3049 16.9774 18.6938C17.3663 19.0827 17.5608 19.5549 17.5608 20.1105C17.5608 20.666 17.3663 21.1382 16.9774 21.5271C16.5885 21.916 16.1163 22.1105 15.5608 22.1105ZM11.1163 17.666C10.5608 17.666 10.0885 17.4716 9.69965 17.0827C9.31076 16.6938 9.11632 16.2216 9.11632 15.666C9.11632 15.1105 9.31076 14.6382 9.69965 14.2494C10.0885 13.8605 10.5608 13.666 11.1163 13.666C11.6719 13.666 12.1441 13.8605 12.533 14.2494C12.9219 14.6382 13.1163 15.1105 13.1163 15.666C13.1163 16.2216 12.9219 16.6938 12.533 17.0827C12.1441 17.4716 11.6719 17.666 11.1163 17.666ZM20.0052 17.666C19.4497 17.666 18.9774 17.4716 18.5885 17.0827C18.1997 16.6938 18.0052 16.2216 18.0052 15.666C18.0052 15.1105 18.1997 14.6382 18.5885 14.2494C18.9774 13.8605 19.4497 13.666 20.0052 13.666C20.5608 13.666 21.033 13.8605 21.4219 14.2494C21.8108 14.6382 22.0052 15.1105 22.0052 15.666C22.0052 16.2216 21.8108 16.6938 21.4219 17.0827C21.033 17.4716 20.5608 17.666 20.0052 17.666ZM6.67188 13.2216C6.11632 13.2216 5.6441 13.0271 5.25521 12.6382C4.86632 12.2494 4.67188 11.7771 4.67188 11.2216C4.67188 10.666 4.86632 10.1938 5.25521 9.80491C5.6441 9.41602 6.11632 9.22157 6.67188 9.22157C7.22743 9.22157 7.69965 9.41602 8.08854 9.80491C8.47743 10.1938 8.67188 10.666 8.67188 11.2216C8.67188 11.7771 8.47743 12.2494 8.08854 12.6382C7.69965 13.0271 7.22743 13.2216 6.67188 13.2216ZM15.5608 13.2216C15.0052 13.2216 14.533 13.0271 14.1441 12.6382C13.7552 12.2494 13.5608 11.7771 13.5608 11.2216C13.5608 10.666 13.7552 10.1938 14.1441 9.80491C14.533 9.41602 15.0052 9.22157 15.5608 9.22157C16.1163 9.22157 16.5885 9.41602 16.9774 9.80491C17.3663 10.1938 17.5608 10.666 17.5608 11.2216C17.5608 11.7771 17.3663 12.2494 16.9774 12.6382C16.5885 13.0271 16.1163 13.2216 15.5608 13.2216ZM11.1163 8.77713C10.5608 8.77713 10.0885 8.58269 9.69965 8.1938C9.31076 7.80491 9.11632 7.33269 9.11632 6.77713C9.11632 6.22157 9.31076 5.74935 9.69965 5.36046C10.0885 4.97157 10.5608 4.77713 11.1163 4.77713C11.6719 4.77713 12.1441 4.97157 12.533 5.36046C12.9219 5.74935 13.1163 6.22157 13.1163 6.77713C13.1163 7.33269 12.9219 7.80491 12.533 8.1938C12.1441 8.58269 11.6719 8.77713 11.1163 8.77713ZM20.0052 8.77713C19.4497 8.77713 18.9774 8.58269 18.5885 8.1938C18.1997 7.80491 18.0052 7.33269 18.0052 6.77713C18.0052 6.22157 18.1997 5.74935 18.5885 5.36046C18.9774 4.97157 19.4497 4.77713 20.0052 4.77713C20.5608 4.77713 21.033 4.97157 21.4219 5.36046C21.8108 5.74935 22.0052 6.22157 22.0052 6.77713C22.0052 7.33269 21.8108 7.80491 21.4219 8.1938C21.033 8.58269 20.5608 8.77713 20.0052 8.77713Z" fill="white"/>
</g>
</g>
<defs>
<filter id="filter0_dd_7_11" x="0.671875" y="4.77713" width="25.3333" height="25.3333" filterUnits="userSpaceOnUse" color-interpolation-filters="sRGB">
<feFlood flood-opacity="0" result="BackgroundImageFix"/>
<feColorMatrix in="SourceAlpha" type="matrix" values="0 0 0 0 0 0 0 0 0 0 0 0 0 0 0 0 0 0 127 0" result="hardAlpha"/>
<feOffset dy="4"/>
<feGaussianBlur stdDeviation="2"/>
<feComposite in2="hardAlpha" operator="out"/>
<feColorMatrix type="matrix" values="0 0 0 0 0 0 0 0 0 0 0 0 0 0 0 0 0 0 0.25 0"/>
<feBlend mode="normal" in2="BackgroundImageFix" result="effect1_dropShadow_7_11"/>
<feColorMatrix in="SourceAlpha" type="matrix" values="0 0 0 0 0 0 0 0 0 0 0 0 0 0 0 0 0 0 127 0" result="hardAlpha"/>
<feOffset dy="4"/>
<feGaussianBlur stdDeviation="2"/>
<feComposite in2="hardAlpha" operator="out"/>
<feColorMatrix type="matrix" values="0 0 0 0 0 0 0 0 0 0 0 0 0 0 0 0 0 0 0.25 0"/>
<feBlend mode="normal" in2="effect1_dropShadow_7_11" result="effect2_dropShadow_7_11"/>
<feBlend mode="normal" in="SourceGraphic" in2="effect2_dropShadow_7_11" result="shape"/>
</filter>
</defs>
</svg>
